<?xml version="1.0" encoding="UTF-8"?>
<svg width="40px" height="40px" viewBox="0 0 40 40" version="1.1" xmlns="http://www.w3.org/2000/svg" xmlns:xlink="http://www.w3.org/1999/xlink">
    <!-- Generator: Sketch 52.5 (67469) - http://www.bohemiancoding.com/sketch -->
    <title>Fill 1</title>
    <desc>Created with Sketch.</desc>
    <g id="Rev-1" stroke="none" stroke-width="1" fill="none" fill-rule="evenodd">
        <g id="Concept-1---Home" transform="translate(-24.000000, -24.000000)" fill="#F1EFE0">
            <g id="Left-Nav">
                <g id="Left-Nav-Simple">
                    <g id="Group">
                        <path d="M52.9544215,49.3378829 L50.4297833,42.5188433 C49.6567986,40.3356145 48.6199889,39.8062487 45.9232162,39.8062487 L41.588593,39.8125393 L43.8865781,46.0755256 L42.8737871,49.3416954 L40.3514364,42.5188433 C39.5721611,40.3356145 38.5391639,39.8062487 35.8458225,39.8062487 L31.5083398,39.8125393 L35.452563,50.5656989 L43.3282373,50.5656989 L43.3282373,50.5616958 L44.3246345,47.269601 L45.531863,50.5656989 L53.4084904,50.5656989 L56.7059227,39.8062487 L55.8704131,39.8062487 L52.9544215,49.3378829 M64,44 C64,55.0455785 55.0457691,64 44,64 C32.9544215,64 24,55.0455785 24,44 C24,32.9542309 32.9544215,24 44,24 C55.0457691,24 64,32.9542309 64,44" id="Fill-1"></path>
                    </g>
                </g>
            </g>
        </g>
    </g>
</svg>